<?xml version="1.0" encoding="iso-8859-1"?>
<!-- Generator: Adobe Illustrator 16.0.0, SVG Export Plug-In . SVG Version: 6.00 Build 0)  -->
<!DOCTYPE svg PUBLIC "-//W3C//DTD SVG 1.1//EN" "http://www.w3.org/Graphics/SVG/1.1/DTD/svg11.dtd">
<svg version="1.1" id="Capa_1" xmlns="http://www.w3.org/2000/svg" xmlns:xlink="http://www.w3.org/1999/xlink" x="0px" y="0px"
	 width="124.814px" height="124.815px" viewBox="0 0 124.814 124.815" style="enable-background:new 0 0 124.814 124.815;"
	 xml:space="preserve">
<g>
	<g>
		<circle cx="100.588" cy="13.605" r="12.749"/>
		<path d="M109.068,29.457c-0.215-0.131-0.439-0.225-0.663-0.32c-1.419-0.947-3.016-1.645-4.642-2.043l-3.176,3.197l-3.08-3.233
			c-0.01,0.003-0.021,0.003-0.031,0.006c-1.659,0.396-3.285,1.108-4.729,2.078c-0.221,0.094-0.442,0.186-0.653,0.315
			c-3.325,2.04-6.101,5.25-8.785,8.355c-6.141,7.105-8.856,9.156-12.84,7.294c-2.477-1.157-5.423-0.089-6.58,2.388
			c-1.158,2.476-0.089,5.422,2.389,6.58c2.429,1.135,4.695,1.619,6.812,1.619c5.96,0,10.711-3.839,14.451-7.766v18.39
			c0,1.332,0.258,2.574,0.712,3.717c-0.035,0.257-0.059,0.518-0.059,0.784l0.003,47.396c0,3.23,2.619,5.85,5.85,5.85
			s5.849-2.619,5.849-5.85l-0.003-40.677c0.232,0.011,0.463,0.029,0.696,0.029c0.046,0,0.091-0.005,0.137-0.007l-0.001,40.652
			c0,3.231,2.619,5.851,5.851,5.851l0,0c3.229,0,5.85-2.619,5.85-5.851l0.002-47.105c0.768-1.419,1.213-3.027,1.213-4.79V50.413
			c1.152,4.188,1.62,9.78,1.019,17.482c-0.213,2.726,1.822,5.106,4.548,5.32c0.132,0.01,0.262,0.016,0.392,0.016
			c2.559,0,4.727-1.971,4.93-4.564C126.474,43.734,118.248,35.087,109.068,29.457z M100.559,55.523l-3.073-4.208l3.073-20.552h0.061
			l3.074,20.552l-3.074,4.208H100.559z"/>
		<circle cx="24.226" cy="13.605" r="12.749"/>
		<path d="M54.345,45.106c-3.982,1.861-6.698-0.187-12.84-7.294c-2.684-3.105-5.459-6.315-8.785-8.355
			c-0.21-0.129-0.432-0.22-0.652-0.314c-1.444-0.97-3.072-1.682-4.731-2.078c-0.01-0.003-0.021-0.003-0.031-0.006l-3.08,3.233
			l-3.175-3.197c-1.626,0.398-3.221,1.096-4.641,2.043c-0.224,0.095-0.45,0.189-0.664,0.32C6.566,35.087-1.66,43.734,0.289,68.666
			C0.492,71.26,2.66,73.23,5.218,73.23c0.129,0,0.26-0.005,0.392-0.017c2.725-0.213,4.761-2.595,4.548-5.32
			c-0.602-7.701-0.134-13.293,1.018-17.481v15.905c0,1.763,0.447,3.37,1.213,4.79l0.002,47.106c0,3.23,2.618,5.85,5.85,5.85
			c3.231,0,5.85-2.619,5.85-5.85l-0.002-40.652c0.046,0,0.091,0.006,0.137,0.006c0.234,0,0.464-0.018,0.696-0.029l-0.003,40.676
			c0,3.231,2.619,5.851,5.849,5.851l0,0c3.23,0,5.849-2.619,5.85-5.851l0.003-47.395c0-0.266-0.024-0.527-0.059-0.784
			c0.453-1.142,0.712-2.385,0.712-3.717V47.927c3.739,3.926,8.489,7.766,14.45,7.766c2.116,0,4.384-0.483,6.813-1.619
			c2.476-1.157,3.545-4.104,2.388-6.58C59.768,45.018,56.823,43.949,54.345,45.106z M24.195,55.523l-3.074-4.208l3.074-20.552h0.06
			l3.074,20.552l-3.074,4.208H24.195z"/>
		<path d="M46.471,41.59h31c0.57,0,1.033-0.463,1.033-1.034v-1.564c0-0.571-0.462-1.033-1.033-1.033h-1.43
			c-0.22-6.474-2.654-9.454-4.632-11.862c-1.521-1.853-2.725-3.317-2.725-5.99c0-2.768,1.271-4.197,2.883-6.007
			c1.835-2.061,4.076-4.593,4.438-9.717h1.465c0.57,0,1.033-0.462,1.033-1.033V1.784c0-0.571-0.462-1.033-1.033-1.033h-31
			c-0.572,0-1.034,0.462-1.034,1.033v1.564c0,0.571,0.462,1.033,1.034,1.033h1.464c0.363,5.125,2.604,7.656,4.44,9.717
			c1.61,1.81,2.882,3.239,2.882,6.007c0,2.673-1.203,4.138-2.725,5.99c-1.978,2.409-4.412,5.388-4.631,11.862h-1.43
			c-0.572,0-1.034,0.462-1.034,1.033v1.564C45.437,41.126,45.9,41.59,46.471,41.59z M54.13,27.408c1.642-2,3.194-3.89,3.194-7.302
			c0-3.555-1.731-5.5-3.405-7.379c-1.764-1.981-3.577-4.033-3.913-8.345h23.929c-0.335,4.312-2.147,6.363-3.912,8.345
			c-1.674,1.88-3.405,3.825-3.405,7.379c0,3.413,1.552,5.302,3.193,7.302c1.86,2.265,3.953,4.824,4.163,10.55H49.967
			C50.177,32.232,52.269,29.673,54.13,27.408z"/>
		<path d="M68.196,29.072c-1.721-2.095-3.67-4.469-3.67-8.63c0-1.471,0.246-2.82,0.749-4.091h-6.609
			c0.502,1.271,0.749,2.62,0.749,4.091c0,4.162-1.949,6.535-3.668,8.629c-1.521,1.851-2.963,3.606-3.493,7.13h19.433
			C71.157,32.678,69.716,30.923,68.196,29.072z"/>
	</g>
</g>
<g>
</g>
<g>
</g>
<g>
</g>
<g>
</g>
<g>
</g>
<g>
</g>
<g>
</g>
<g>
</g>
<g>
</g>
<g>
</g>
<g>
</g>
<g>
</g>
<g>
</g>
<g>
</g>
<g>
</g>
</svg>
