<?xml version="1.0" encoding="iso-8859-1"?>
<!-- Generator: Adobe Illustrator 19.0.0, SVG Export Plug-In . SVG Version: 6.00 Build 0)  -->
<svg version="1.1" id="Capa_1" xmlns="http://www.w3.org/2000/svg" xmlns:xlink="http://www.w3.org/1999/xlink" x="0px" y="0px"
	 viewBox="0 0 345 345" style="enable-background:new 0 0 345 345;" xml:space="preserve">
<g>
	<path d="M7.5,344h146V0H7.5V344z M22.5,15h116v314h-116V15z"/>
	<path d="M80.837,223.698c-25.26,0-45.811,20.551-45.811,45.811s20.551,45.811,45.811,45.811s45.811-20.551,45.811-45.811
		S106.097,223.698,80.837,223.698z M80.837,300.32c-16.989,0-30.811-13.822-30.811-30.811s13.822-30.811,30.811-30.811
		c16.989,0,30.811,13.822,30.811,30.811S97.826,300.32,80.837,300.32z"/>
	<rect x="42.5" y="34" width="76" height="15"/>
	<rect x="42.5" y="65" width="76" height="15"/>
	<path d="M190.5,2v343h147V2H190.5z M322.5,330h-117V17h117V330z"/>
	<path d="M264.013,316.97c25.26,0,45.811-20.551,45.811-45.811s-20.551-45.811-45.811-45.811s-45.811,20.551-45.811,45.811
		S238.753,316.97,264.013,316.97z M264.013,240.348c16.989,0,30.811,13.822,30.811,30.811s-13.822,30.811-30.811,30.811
		s-30.811-13.822-30.811-30.811S247.024,240.348,264.013,240.348z"/>
	<rect x="225.5" y="37" width="77" height="15"/>
	<rect x="225.5" y="68" width="77" height="15"/>
</g>
<g>
</g>
<g>
</g>
<g>
</g>
<g>
</g>
<g>
</g>
<g>
</g>
<g>
</g>
<g>
</g>
<g>
</g>
<g>
</g>
<g>
</g>
<g>
</g>
<g>
</g>
<g>
</g>
<g>
</g>
</svg>
